<?xml version="1.0" encoding="iso-8859-1"?>
<!-- Generator: Adobe Illustrator 19.0.0, SVG Export Plug-In . SVG Version: 6.00 Build 0)  -->
<svg version="1.1" id="Layer_1" xmlns="http://www.w3.org/2000/svg" xmlns:xlink="http://www.w3.org/1999/xlink" x="0px" y="0px"
	 viewBox="0 0 512 512" style="enable-background:new 0 0 512 512;" xml:space="preserve">
<g>
	<g>
		<path d="M365.295,169.167l23.743-45.191c13.781-26.23,12.839-57.757-2.484-83.117C371.23,15.498,343.76,0,314.13,0H197.87
			c-29.63,0-57.102,15.498-72.425,40.858c-15.323,25.36-16.265,56.887-2.484,83.117l23.743,45.191
			C86.453,206.079,46.167,272.531,46.167,348.22c0,51.262,18.693,100.62,52.636,138.979c13.946,15.76,34.021,24.8,55.078,24.8
			h204.24c21.057,0,41.131-9.039,55.077-24.8c33.943-38.36,52.636-87.718,52.636-138.979
			C465.833,272.532,425.546,206.08,365.295,169.167z M321.92,98.378l-23.308,44.363c-13.764-2.851-28.017-4.354-42.613-4.354
			s-28.849,1.502-42.613,4.354l-23.308-44.363c-3.007-5.724-2.802-12.605,0.542-18.14c3.344-5.534,9.339-8.917,15.806-8.917h99.148
			c6.467,0,12.462,3.382,15.806,8.917C324.723,85.773,324.929,92.653,321.92,98.378z"/>
	</g>
</g>
<g>
</g>
<g>
</g>
<g>
</g>
<g>
</g>
<g>
</g>
<g>
</g>
<g>
</g>
<g>
</g>
<g>
</g>
<g>
</g>
<g>
</g>
<g>
</g>
<g>
</g>
<g>
</g>
<g>
</g>
</svg>
