<svg width="941.214" height="941.214" xmlns="http://www.w3.org/2000/svg">

 <g>
  <title>background</title>
  <rect fill="none" id="canvas_background" height="402" width="582" y="-1" x="-1"/>
 </g>
 <g>
  <title>Layer 1</title>
  <g id="svg_1">
   <g id="svg_2">
    <path id="svg_3" d="m119.575,293.47l217.8,28c7.601,19.3 45.9,114.3 53.101,131.3c0,0 0,0 -0.101,0c-63.1,31.2 -126.2,62.3 -189.3,93.5c21.9,-4 44.1,-6 66.4,-6c29.2,0 57.8,3.5 85.1,10.4c55.1,14 104.9,36.399 153,58.1c42.9,19.3 83.5,37.601 124,48.101c5.7,1.5 11.2,2.8 16.7,3.899c-48,-98.3 -177.1,-363.2 -202.6,-421.5c-12,-27.5 -28.5,-37.7 -51.899,-40.7l-255.8,-32.9c-35.3,-4.5 -67.6,20.4 -72.2,55.7c-4.401,35.3 20.499,67.6 55.799,72.1z"/>
    <path id="svg_4" d="m16.675,752.87c7.1,5.1 15.2,7.5 23.3,7.5c1.8,0 3.5,-0.101 5.2,-0.4c10.6,-1.4 20.6,-7 27.3,-16.3c25.9,-36.101 66,-64.5 112.7,-80.101c26.8,-8.899 54.8,-13.399 82.3,-13.399c99.7,0 185.2,59.6 275.199,93.899c48.2,18.4 98.5,32 153.2,32c23,0 46.8,-2.399 71.5,-7.899c58.101,-12.8 107.9,-40.4 143.9,-79.101c8.6,-9.3 16.399,-19.1 23.3,-29.6c12.2,-18.4 7.1,-43.2 -11.3,-55.4c-6.8,-4.5 -14.4,-6.6 -22,-6.6c-13,0 -25.7,6.3 -33.4,17.9c-3.1,4.699 -6.5,9.199 -10.2,13.6c-25,29.8 -62.5,51.2 -107.5,61.1c-41.5,9.101 -87.3,6.4 -128.199,-4.199c-43,-11.2 -84.601,-29.9 -128.801,-49.801c-47,-21.1 -95.5,-43 -148.099,-56.399c-25,-6.4 -51.2,-9.5 -77.7,-9.5c-36.1,0 -72.8,5.899 -107.7,17.5c-30.5,10.2 -58.8,24.399 -84.2,42.3c-26.8,18.9 -49.7,41.4 -68.1,67c-1.2,1.7 -2.2,3.4 -3.1,5.2c-8.7,17.3 -3.9,39 12.4,50.7z"/>
    <circle id="svg_5" r="141.1" cy="426.169" cx="740.874"/>
   </g>
  </g>
  <g id="svg_6"/>
  <g id="svg_7"/>
  <g id="svg_8"/>
  <g id="svg_9"/>
  <g id="svg_10"/>
  <g id="svg_11"/>
  <g id="svg_12"/>
  <g id="svg_13"/>
  <g id="svg_14"/>
  <g id="svg_15"/>
  <g id="svg_16"/>
  <g id="svg_17"/>
  <g id="svg_18"/>
  <g id="svg_19"/>
  <g id="svg_20"/>
 </g>
</svg>